<?xml version="1.0" encoding="utf-8"?>
<!-- Uploaded to: SVG Repo, www.svgrepo.com, Generator: SVG Repo Mixer Tools -->
<svg width="800px" height="800px" viewBox="0 0 24 24" fill="none" xmlns="http://www.w3.org/2000/svg">
<g clip-path="url(#a)" fill="#000000">
<path d="M12 0a1 1 0 0 1 1 1v4a1 1 0 1 1-2 0V1a1 1 0 0 1 1-1ZM4.929 3.515a1 1 0 0 0-1.414 1.414l2.828 2.828a1 1 0 0 0 1.414-1.414L4.93 3.515ZM1 11a1 1 0 1 0 0 2h4a1 1 0 1 0 0-2H1ZM18 12a1 1 0 0 1 1-1h4a1 1 0 1 1 0 2h-4a1 1 0 0 1-1-1ZM17.657 16.243a1 1 0 0 0-1.414 1.414l2.828 2.828a1 1 0 1 0 1.414-1.414l-2.828-2.828ZM7.757 17.657a1 1 0 1 0-1.414-1.414L3.515 19.07a1 1 0 1 0 1.414 1.414l2.828-2.828ZM20.485 4.929a1 1 0 0 0-1.414-1.414l-2.828 2.828a1 1 0 1 0 1.414 1.414l2.828-2.828ZM13 19a1 1 0 1 0-2 0v4a1 1 0 1 0 2 0v-4ZM12 7a5 5 0 1 0 0 10 5 5 0 0 0 0-10Z"/>
</g>
<defs>
<clipPath id="a">
<path fill="#ffffff" d="M0 0h24v24H0z"/>
</clipPath>
</defs>
</svg>


<svg xmlns="http://www.w3.org/2000/svg" fill="none" viewBox="0 0 24 24" stroke-width="1.5" stroke="currentColor" class="size-6">
  <path stroke-linecap="round" stroke-linejoin="round" d="m2.25 12 8.954-8.955c.44-.439 1.152-.439 1.591 0L21.75 12M4.5 9.75v10.125c0 .621.504 1.125 1.125 1.125H9.75v-4.875c0-.621.504-1.125 1.125-1.125h2.25c.621 0 1.125.504 1.125 1.125V21h4.125c.621 0 1.125-.504 1.125-1.125V9.75M8.25 21h8.25" />
</svg>



<svg xmlns="http://www.w3.org/2000/svg" fill="none" viewBox="0 0 24 24" stroke-width="1.5" stroke="currentColor" class="size-6">
  <path stroke-linecap="round" stroke-linejoin="round" d="M6.429 9.75 2.25 12l4.179 2.25m0-4.5 5.571 3 5.571-3m-11.142 0L2.25 7.5 12 2.25l9.75 5.25-4.179 2.25m0 0L21.75 12l-4.179 2.25m0 0 4.179 2.25L12 21.75 2.25 16.5l4.179-2.25m11.142 0-5.571 3-5.571-3" />
</svg>
