<?xml version="1.0" encoding="utf-8"?>

<!DOCTYPE svg PUBLIC "-//W3C//DTD SVG 1.1//EN" "http://www.w3.org/Graphics/SVG/1.1/DTD/svg11.dtd">
<!-- Uploaded to: SVG Repo, www.svgrepo.com, Generator: SVG Repo Mixer Tools -->
<svg version="1.1" id="_x32_" xmlns="http://www.w3.org/2000/svg" xmlns:xlink="http://www.w3.org/1999/xlink" 
	 viewBox="0 0 512 512"  xml:space="preserve">
<style type="text/css">
	.st0{fill:#000000;}
</style>
<g>
	<path class="st0" d="M497.946,86.465c-7.768,0-14.055,6.285-14.055,14.054v312.41c-0.012,11.282-9.127,20.368-20.368,20.382H48.477
		c-11.241-0.014-20.355-9.1-20.368-20.382V85.668L62.01,99.71c3.416,1.414,7.342,1.414,10.76,0l47.97-19.86l47.955,19.86
		c3.417,1.414,7.342,1.414,10.76,0l47.941-19.86l47.943,19.86c3.416,1.414,7.329,1.414,10.746,0l48.01-19.86l48.052,19.86
		c3.417,1.414,7.315,1.414,10.734,0l33.996-14.054v296.173c0,7.768,6.286,14.054,14.054,14.054s14.054-6.286,14.054-14.054V64.641
		c0-4.693-2.333-9.072-6.244-11.679c-3.899-2.621-8.839-3.116-13.176-1.304l-48.052,19.86l-48.051-19.86
		c-3.418-1.426-7.316-1.426-10.734,0l-48.01,19.846l-47.941-19.846c-3.418-1.426-7.344-1.426-10.762,0l-47.942,19.846L126.12,51.658
		c-3.432-1.426-7.344-1.426-10.76,0L67.39,71.504L19.434,51.658c-4.351-1.798-9.279-1.317-13.19,1.29
		C2.333,55.569,0,59.948,0,64.641V412.93c0,26.791,21.699,48.477,48.477,48.491h415.046c26.778-0.014,48.477-21.7,48.477-48.491
		V100.52C512,92.75,505.701,86.465,497.946,86.465z"/>
	<path class="st0" d="M81.197,166.757v125.612H211.97V166.757H81.197z M189.488,269.888h-85.81v-80.649h85.81V269.888z"/>
	<rect x="260.351" y="166.564" class="st0" width="111.763" height="22.482"/>
	<rect x="260.351" y="222.673" class="st0" width="111.763" height="22.482"/>
	<rect x="260.351" y="278.808" class="st0" width="111.763" height="22.482"/>
	<rect x="81.197" y="334.916" class="st0" width="290.917" height="22.482"/>
</g>
</svg>